<?xml version="1.0" encoding="UTF-8"?>
<!DOCTYPE svg PUBLIC "-//W3C//DTD SVG 1.1//EN" "http://www.w3.org/Graphics/SVG/1.1/DTD/svg11.dtd">
<!-- Creator: CorelDRAW -->
<svg xmlns="http://www.w3.org/2000/svg" xml:space="preserve" version="1.1" style="shape-rendering:geometricPrecision; text-rendering:geometricPrecision; image-rendering:optimizeQuality; fill-rule:evenodd; clip-rule:evenodd"
viewBox="0 0 300 135"
 xmlns:xlink="http://www.w3.org/1999/xlink"
 xmlns:xodm="http://www.corel.com/coreldraw/odm/2003">
 <defs>
  <style type="text/css">
   <![CDATA[
    .fil0 {fill:#00A6FF}
    .fil16 {fill:#FD673A}
    .fil1 {fill:#00A6FF;fill-rule:nonzero}
    .fil5 {fill:url(#id0)}
    .fil7 {fill:url(#id1)}
    .fil12 {fill:url(#id2)}
    .fil6 {fill:url(#id3)}
    .fil3 {fill:url(#id4)}
    .fil2 {fill:url(#id5)}
    .fil15 {fill:url(#id6)}
    .fil11 {fill:url(#id7)}
    .fil4 {fill:url(#id8)}
    .fil9 {fill:url(#id9)}
    .fil8 {fill:url(#id10)}
    .fil17 {fill:url(#id11)}
    .fil14 {fill:url(#id12)}
    .fil10 {fill:url(#id13)}
    .fil13 {fill:url(#id14)}
   ]]>
  </style>
  <linearGradient id="id0" gradientUnits="userSpaceOnUse" x1="126.77" y1="21.03" x2="155.09" y2="39.69">
   <stop offset="0" style="stop-opacity:1; stop-color:#FD6B3B"/>
   <stop offset="1" style="stop-opacity:1; stop-color:#FD9D42"/>
  </linearGradient>
  <linearGradient id="id1" gradientUnits="userSpaceOnUse" xlink:href="#id0" x1="86.24" y1="54.47" x2="112.47" y2="74.4">
  </linearGradient>
  <linearGradient id="id2" gradientUnits="userSpaceOnUse" xlink:href="#id0" x1="110.14" y1="77.76" x2="116.69" y2="86">
  </linearGradient>
  <linearGradient id="id3" gradientUnits="userSpaceOnUse" xlink:href="#id0" x1="89.98" y1="44.61" x2="115.91" y2="64.05">
  </linearGradient>
  <linearGradient id="id4" gradientUnits="userSpaceOnUse" xlink:href="#id0" x1="126.08" y1="12.87" x2="180.34" y2="66.76">
  </linearGradient>
  <linearGradient id="id5" gradientUnits="userSpaceOnUse" xlink:href="#id0" x1="126.1" y1="71.79" x2="177.84" y2="114.33">
  </linearGradient>
  <linearGradient id="id6" gradientUnits="userSpaceOnUse" xlink:href="#id0" x1="189.6" y1="29.94" x2="191.03" y2="31.12">
  </linearGradient>
  <linearGradient id="id7" gradientUnits="userSpaceOnUse" xlink:href="#id0" x1="130.11" y1="40.96" x2="141.3" y2="48.03">
  </linearGradient>
  <linearGradient id="id8" gradientUnits="userSpaceOnUse" xlink:href="#id0" x1="174.52" y1="10.79" x2="210.72" y2="47.74">
  </linearGradient>
  <linearGradient id="id9" gradientUnits="userSpaceOnUse" xlink:href="#id0" x1="125.65" y1="85.23" x2="137.09" y2="92.74">
  </linearGradient>
  <linearGradient id="id10" gradientUnits="userSpaceOnUse" xlink:href="#id0" x1="68.27" y1="71.17" x2="77.21" y2="77.04">
  </linearGradient>
  <linearGradient id="id11" gradientUnits="userSpaceOnUse" x1="179.3" y1="-3.73" x2="230.14" y2="47.79">
   <stop offset="0" style="stop-opacity:1; stop-color:#FD673A"/>
   <stop offset="1" style="stop-opacity:1; stop-color:#FD9F45"/>
  </linearGradient>
  <linearGradient id="id12" gradientUnits="userSpaceOnUse" xlink:href="#id0" x1="141.17" y1="20.37" x2="146.95" y2="26.24">
  </linearGradient>
  <linearGradient id="id13" gradientUnits="userSpaceOnUse" xlink:href="#id0" x1="99.44" y1="43.31" x2="111.23" y2="50.84">
  </linearGradient>
  <linearGradient id="id14" gradientUnits="userSpaceOnUse" xlink:href="#id0" x1="124.21" y1="74.14" x2="126.57" y2="76.04">
  </linearGradient>
 </defs>
 <g id="Layer_x0020_1">
  <metadata id="CorelCorpID_0Corel-Layer"/>
  <g id="complete">
   <g id="bullet">
    <path class="fil0" d="M159.93 46.35c-2.41,2.35 -3.35,5.29 -4.31,8.07 -1.94,5.56 -2.16,11.68 -1.64,17.45 0.15,1.67 0.45,4.78 1.51,6.05 -0.12,-2.04 0.25,-0.28 0.39,-1.65 0.03,-0.31 -0.05,-0.34 0.05,-0.85 0.56,0.9 1.51,2.92 1.72,4.17 0.59,3.29 1.54,3.66 1.35,4.8 -0.56,-0.23 -1.17,-1.06 -1.45,-1.89 -0.21,0.44 -0.84,0.22 0.77,2.72 0.34,0.53 0.79,1.14 0.95,1.34 0.48,0.61 -0.1,-0.11 0.36,0.44 2.25,2.71 1.55,2.08 6.44,2.12l28.86 -0.13c2.35,-0.17 3.66,0.14 6.06,-0.32 -5.04,-5.08 -7.1,-14.72 -7.04,-21.68 0.07,-7.6 0.69,-15.28 6.14,-21.57l-33.88 0.15c-0.06,0 -0.15,0.01 -0.21,0.02 -2.33,0.11 -4.9,-0.39 -6.07,0.76l0 0 0 0z"/>
    <path class="fil0" d="M233.72 49.22c-3.92,3.84 -5.19,12.41 -5.06,18.05 0.05,2.15 0.49,4.16 0.89,6.24 0.98,-0.18 2.27,-0.24 3.35,-0.17l18.2 -0.73c0.06,-0.01 0.15,-0.01 0.21,-0.01l10.04 -0.78c0.78,-0.08 0.89,-0.08 1.68,-0.2 0.26,-0.03 0.53,-0.08 0.83,-0.11 4.53,-0.42 5.72,-1.06 8.17,-1.38l12.35 -1.94c1.02,-0.19 0.9,-0.41 1.89,-0.25 -1.11,0.91 -0.55,0.15 -1.27,1.23 1.02,-0.06 1.08,0.14 2.1,-0.81 -0.4,-0.69 -0.31,-0.16 0.01,-0.83 0.88,0.14 1.14,-0.07 2.09,-0.29 1.7,-0.41 0.56,-0.23 2.09,0.32l-7.35 3.12c-1.48,0.62 -2.29,0.9 -3.77,1.38l-7.34 2.25c-1.39,0.33 -2.43,0.74 -3.77,1.06 -1.33,0.31 -2.46,0.48 -3.77,0.86 -3.89,1.12 -7.93,1.83 -11.94,2.31 -0.57,0.07 -0.49,0.07 -1.05,0.18 -0.86,0.17 -1.06,0.2 -1.88,0.27l-2.93 0.3c-0.06,0.01 -0.15,0.02 -0.21,0.02l-7.95 0.42c-1.91,-0.02 -5.94,0.41 -7.52,-0.58l-0.42 0.41c2.49,2.98 -0.42,3.94 6.87,3.44l0.84 -0.08c4.09,-0.33 5.2,-0.12 10.04,-0.76l11.94 -2.19c11.51,-2.73 17.57,-4.85 27.89,-9.89 2.49,-1.21 5.71,-2.47 7.98,-4.35 -2.09,-2.11 -14.44,-7.03 -17.5,-7.95 -0.76,-0.23 -1.29,-0.36 -2.09,-0.66l-19.82 -5.51c-6.31,-0.93 -13.18,-2.41 -19.85,-2.46 -0.57,-0.01 -3.76,-0.14 -3.97,0.07l0 0 0 0z"/>
    <path class="fil0" d="M203.83 47.94c-1.95,1.92 -3.07,4.66 -3.9,6.83 -1.88,4.96 -1.92,11.4 -1.22,16.63 0.15,1.11 0.17,2.58 0.72,3.54 0.74,0.12 1.18,-0.07 2.09,-0.09l1.68 -0.04c0.43,-0.02 0.2,0 0.62,-0.02l4.4 -0.2c0.83,1.36 0.33,2.35 1.84,4.8 -0.95,0.18 -1.04,0.28 -2.09,0.22l-4.61 0.08c-0.99,0.11 -1.48,-0.02 -2.3,0.67 1.21,1.27 1.16,1.95 1.58,2.71 2.32,4.23 3.87,3.12 9.04,3.1 1,-0.01 1.38,-0.13 2.3,-0.31 -3.67,-3.87 -5.24,-13.49 -5.18,-18.96 0.05,-4.72 1.65,-15.8 4.86,-19.08 -0.87,-0.52 -1.31,-0.34 -2.3,-0.33l-2.09 -0.09c-0.91,-0.01 -4.95,0.06 -5.44,0.55l0 -0.01z"/>
    <path class="fil0" d="M218.04 49.3c-2.72,2.66 -4.81,11.58 -4.84,15.76l0.44 6.46c0.16,1.17 0.43,2.24 0.64,3.33l5.65 -0.74c0.34,-0.03 0.48,-0.03 0.63,-0.04l0.41 -0.04c3.25,-0.28 2.37,-0.31 3.23,2.15 0.4,1.15 0.7,0.92 0.51,2.08 -1.42,-0.83 -7.15,0 -9,0.55 3.01,4.9 0.2,5.24 7.49,5.16 1.06,-0.01 1.44,-0.18 2.51,-0.19 1.15,-0.02 1.43,-0.09 2.51,-0.3 -3.27,-3.9 -3.98,-12.32 -3.94,-17.07 0.04,-4.88 0.67,-10.16 2.6,-14.75 0.38,-0.89 0.91,-1.51 1.2,-2.28 -1.21,-0.7 -3.61,-0.33 -5.02,-0.35 -0.48,-0.01 -5,0.25 -5.02,0.27l0 0 0 0z"/>
    <path class="fil0" d="M144.87 72.63c0.87,-0.16 1.77,-0.22 2.73,-0.32 0.89,-0.08 1.99,-0.05 2.71,-0.47 0.29,1.47 1.55,6.46 1.41,7.29 -1.73,0.33 -4.66,0.35 -5.44,0.79 1.41,1.68 0.94,2.93 3.28,5.44 1.36,1.46 1.5,1.55 2.94,1.29 0.77,-0.14 2.19,-0.41 2.93,-0.84 -3.06,-3.23 -4.59,-13.91 -4.56,-18.12 0.04,-4.06 1.44,-15.4 4.23,-18.26 -1.09,-0.64 -2.28,-0.22 -3.55,-0.11 -1.78,0.15 -2.1,0.04 -3.29,1.7 -3.93,5.48 -4.86,19.03 -3.39,21.61l0 0 0 0z"/>
    <path class="fil0" d="M138.14 52.41c-2.52,2.45 -3.27,7.56 -3.65,10.16 -0.32,2.22 -0.13,3.2 -0.13,4.99 0,2.11 0.06,3.13 0.68,5.2 2.15,-0.64 1.74,-0.1 3.14,-0.18 1.12,-0.06 0.09,0.51 1.26,-0.41 0.45,0.79 0.93,3.38 0.8,4.17 -1.09,0.21 -1.44,-0.07 -2.62,0.11l-1.77 0.47c0.88,2.58 1.95,4.5 3.92,6.48 1.27,-0.24 2.06,-0.42 3.35,-0.8 -0.24,-0.81 -0.38,-0.99 -0.77,-1.88l-1.51 -5.63c-1.29,-6.8 -0.76,-12.22 0.95,-18.91 0.36,-1.39 0.73,-2.61 1.57,-3.94 -1.18,-0.69 -5.2,0.14 -5.22,0.17l0 0 0 0z"/>
   </g>
   <g id="particles">
    <path class="fil0" d="M40.84 60.58c-7.38,7.22 -1.31,16.53 5.93,16.58 0.94,0.01 2,-0.02 2.93,-0.38 7.45,-2.94 7.75,-12 4.51,-15.27l-1.24 -1.25c-3.21,-3.25 -8.87,-2.88 -12.13,0.32l0 0 0 0z"/>
    <path class="fil0" d="M75.72 39.65c1.9,1.91 3.76,4.16 7.08,3.87 7.86,-0.68 9.74,-9.93 5.54,-14.17 -1.31,-1.34 -3.68,-2.27 -5.42,-2.24 -7.91,0.12 -10.4,9.3 -7.2,12.54l0 0z"/>
    <path class="fil0" d="M72.82 87.44c-7.25,7.1 3.31,16.98 9.54,10.89 2.15,-2.11 1.76,-1.38 2.35,-3.31l0.31 -2.7c0,-6.72 -7.68,-9.29 -12.2,-4.88l0 0 0 0z"/>
    <path class="fil0" d="M90.9 75.11c-6.17,6.05 2.05,14.51 8.3,8.38 0.98,-0.95 1.21,-2.86 1.21,-3.93 -0.05,-4.8 -5.83,-8.05 -9.51,-4.45l0 0z"/>
    <path class="fil0" d="M154.26 23.01c4.28,4.32 8.29,0.01 8.06,-2.43 -0.32,-3.38 -3.93,-6.13 -7.59,-3.23 -1.51,1.2 -1.92,4.19 -0.47,5.66z"/>
    <path class="fil0" d="M56.52 86.48c-4.37,4.28 0.28,7.47 2.24,7.39 3.19,-0.13 5.38,-3.81 3.24,-6.71 -1.26,-1.7 -3.97,-2.15 -5.48,-0.68z"/>
    <path class="fil0" d="M101.53 27.59c-3.65,3.57 1.36,8.29 4.94,5.32 0.58,-0.48 1.17,-1.41 1.34,-2.35 0.39,-2.14 -1.1,-3.86 -3.35,-3.97 -0.72,-0.03 -0.68,-0.05 -1.46,0.21 -0.7,0.23 -0.92,0.24 -1.47,0.79l0 0 0 0z"/>
    <path class="fil0" d="M62.69 47.86c-5.21,5.09 5.26,9.13 5.4,2.53 0.07,-3.47 -3.67,-4.23 -5.4,-2.53z"/>
   </g>
   <g id="text_group">
    <path id="text" class="fil1" d="M20.5 122.49c-0.11,0.56 -0.25,1.35 -0.4,2.35 -0.15,1 -0.26,1.78 -0.31,2.33 -2.06,0.33 -3.89,0.5 -5.51,0.51 -1.56,0.01 -3.01,-0.18 -4.35,-0.56 -1.35,-0.38 -2.58,-1.01 -3.71,-1.88 -1.13,-0.88 -1.93,-1.92 -2.42,-3.12 -0.49,-1.19 -0.74,-2.52 -0.75,-4.01 -0.01,-1.73 0.31,-3.29 0.95,-4.68 0.64,-1.39 1.57,-2.55 2.78,-3.48 1.21,-0.93 2.54,-1.59 3.99,-2 1.45,-0.41 2.95,-0.62 4.5,-0.63 1.42,0 3.18,0.17 5.29,0.53l0.03 1.2c0.02,0.53 0.05,1.1 0.09,1.73l0.11 1.63c-1.13,-0.26 -2.04,-0.43 -2.74,-0.52 -0.7,-0.09 -1.34,-0.13 -1.94,-0.13 -1.3,0.01 -2.47,0.27 -3.5,0.8 -1.04,0.52 -1.85,1.28 -2.44,2.26 -0.59,0.99 -0.88,2.09 -0.88,3.28 0.01,1.09 0.27,2.02 0.77,2.81 0.51,0.77 1.19,1.37 2.04,1.79 0.85,0.42 1.9,0.63 3.15,0.62 0.68,0 1.43,-0.06 2.23,-0.18 0.8,-0.11 1.81,-0.32 3.02,-0.65zm11.14 -10.32c1.19,-0.01 2.34,0.16 3.45,0.52 1.1,0.36 2.04,0.87 2.8,1.55 0.77,0.69 1.34,1.48 1.7,2.4 0.37,0.9 0.56,1.89 0.56,2.94 0.01,1.03 -0.15,2 -0.46,2.93 -0.32,0.92 -0.86,1.79 -1.63,2.6 -0.77,0.82 -1.74,1.43 -2.93,1.84 -1.18,0.41 -2.44,0.62 -3.77,0.62 -1.23,0.01 -2.41,-0.16 -3.54,-0.5 -1.12,-0.36 -2.07,-0.86 -2.83,-1.54 -0.76,-0.68 -1.33,-1.49 -1.72,-2.43 -0.38,-0.94 -0.58,-1.94 -0.59,-2.98 -0.01,-1.04 0.18,-2.05 0.54,-2.99 0.36,-0.95 0.94,-1.81 1.75,-2.57 0.8,-0.76 1.79,-1.35 2.97,-1.76 1.18,-0.41 2.41,-0.63 3.7,-0.63zm-0.08 4.23c-0.61,0 -1.16,0.16 -1.65,0.48 -0.47,0.32 -0.83,0.78 -1.08,1.39 -0.24,0.61 -0.36,1.27 -0.35,1.99 0,1.04 0.27,1.85 0.8,2.4 0.54,0.56 1.21,0.83 2.01,0.83 0.6,-0.01 1.15,-0.17 1.63,-0.49 0.48,-0.32 0.84,-0.8 1.08,-1.43 0.24,-0.62 0.36,-1.29 0.36,-2.01 -0.01,-0.59 -0.11,-1.12 -0.3,-1.6 -0.2,-0.48 -0.52,-0.86 -0.96,-1.14 -0.44,-0.29 -0.95,-0.42 -1.54,-0.42zm27.03 10.63c-1.03,-0.02 -1.89,-0.02 -2.57,-0.02 -0.78,0.01 -1.71,0.02 -2.81,0.05l0.07 -1.81c-0.37,0.36 -0.7,0.66 -0.97,0.88 -0.28,0.23 -0.64,0.45 -1.08,0.66 -0.44,0.21 -0.9,0.38 -1.41,0.5 -0.5,0.12 -1.02,0.18 -1.57,0.18 -0.92,0.01 -1.79,-0.15 -2.59,-0.49 -0.81,-0.33 -1.49,-0.8 -2.07,-1.41 -0.57,-0.62 -0.99,-1.35 -1.28,-2.19 -0.29,-0.84 -0.43,-1.73 -0.44,-2.63 0,-1.3 0.25,-2.56 0.75,-3.8 0.5,-1.24 1.16,-2.21 1.98,-2.92 0.83,-0.72 1.75,-1.22 2.79,-1.52 1.03,-0.3 2.15,-0.45 3.36,-0.46 0.8,-0.01 1.74,0.06 2.81,0.19 0.06,-1.14 0.1,-2.74 0.11,-4.8 1.18,0.02 2.15,0.02 2.9,0.02 0.97,-0.01 1.94,-0.02 2.93,-0.05 -0.25,2.84 -0.47,6.32 -0.65,10.42 -0.18,4.1 -0.27,7.17 -0.26,9.2zm-5.21 -11.06c-0.51,-0.11 -0.99,-0.17 -1.45,-0.16 -0.94,0 -1.74,0.19 -2.39,0.55 -0.65,0.36 -1.16,0.92 -1.51,1.69 -0.34,0.76 -0.51,1.51 -0.51,2.25 0,0.56 0.1,1.05 0.3,1.49 0.21,0.45 0.51,0.8 0.93,1.06 0.41,0.25 0.87,0.38 1.37,0.38 0.53,-0.01 1.01,-0.16 1.46,-0.46 0.43,-0.3 0.78,-0.73 1.06,-1.31 0.27,-0.57 0.46,-1.26 0.55,-2.05 0.1,-0.79 0.16,-1.94 0.19,-3.44zm22.74 6.63c-0.12,0.57 -0.35,1.96 -0.69,4.15 -1.11,0.23 -2.05,0.38 -2.82,0.46 -0.76,0.08 -1.53,0.12 -2.31,0.13 -1.15,0 -2.21,-0.07 -3.17,-0.22 -0.97,-0.15 -1.81,-0.43 -2.51,-0.83 -0.7,-0.39 -1.29,-0.89 -1.77,-1.48 -0.47,-0.6 -0.84,-1.3 -1.09,-2.13 -0.25,-0.82 -0.38,-1.66 -0.38,-2.53 -0.01,-1.23 0.23,-2.43 0.71,-3.6 0.48,-1.18 1.11,-2.1 1.88,-2.76 0.78,-0.66 1.67,-1.14 2.68,-1.42 1,-0.29 2.04,-0.43 3.1,-0.44 1.1,0 2.15,0.12 3.14,0.37 1.01,0.24 1.85,0.68 2.55,1.31 0.7,0.62 1.2,1.33 1.5,2.12 0.29,0.79 0.45,1.65 0.45,2.57 0,0.55 -0.05,1.15 -0.16,1.82l-10.16 0.08c-0.01,0.15 -0.01,0.29 -0.01,0.41 0,1.03 0.38,1.79 1.13,2.28 0.75,0.48 1.65,0.72 2.73,0.71 0.63,0 1.36,-0.08 2.18,-0.23 0.81,-0.16 1.82,-0.41 3.02,-0.77zm-8.95 -4.59l4.78 -0.03c0.01,-0.16 0.01,-0.3 0.01,-0.42 0,-0.49 -0.09,-0.92 -0.27,-1.27 -0.19,-0.35 -0.45,-0.61 -0.78,-0.77 -0.33,-0.16 -0.71,-0.24 -1.12,-0.23 -0.29,0 -0.57,0.04 -0.84,0.14 -0.27,0.09 -0.51,0.23 -0.73,0.4 -0.22,0.18 -0.4,0.38 -0.54,0.62 -0.14,0.22 -0.25,0.45 -0.31,0.66 -0.07,0.21 -0.13,0.51 -0.2,0.9zm12.4 8.89c0.19,-2.11 0.31,-3.77 0.37,-4.97 0.09,-1.65 0.17,-3.91 0.24,-6.79 0.08,-2.87 0.11,-4.9 0.1,-6.07 0,-0.42 -0.01,-1.02 -0.02,-1.79 1.28,0.03 2.29,0.03 3.04,0.03 1.05,-0.01 2.27,-0.04 3.66,-0.09 1.4,-0.05 2.59,-0.08 3.6,-0.09 1.2,0 2.06,0.02 2.56,0.09 0.68,0.08 1.27,0.23 1.78,0.45 0.5,0.22 0.92,0.48 1.26,0.81 0.38,0.38 0.68,0.84 0.89,1.37 0.25,0.61 0.37,1.27 0.37,1.97 0.01,0.54 -0.06,1.06 -0.19,1.56 -0.14,0.51 -0.34,0.95 -0.59,1.34 -0.25,0.38 -0.53,0.71 -0.85,0.97 -0.32,0.26 -0.63,0.47 -0.93,0.61 -0.3,0.14 -0.7,0.29 -1.21,0.44 0.5,0.08 0.91,0.18 1.22,0.29 0.31,0.1 0.64,0.28 0.99,0.52 0.35,0.24 0.67,0.55 0.95,0.94 0.28,0.38 0.49,0.8 0.63,1.28 0.14,0.47 0.22,0.97 0.22,1.5 0,0.73 -0.11,1.41 -0.35,2.06 -0.24,0.64 -0.57,1.2 -1,1.65 -0.36,0.4 -0.84,0.74 -1.42,1.02 -0.59,0.28 -1.19,0.48 -1.8,0.59 -0.5,0.08 -1.41,0.14 -2.73,0.18 -1.32,0.05 -2.72,0.08 -4.2,0.09l-3.79 0.01 -2.8 0.03zm6.38 -12.01l2.04 -0.01c0.67,0 1.14,-0.02 1.42,-0.06 0.29,-0.03 0.56,-0.09 0.83,-0.18 0.26,-0.09 0.49,-0.24 0.69,-0.44 0.19,-0.2 0.33,-0.43 0.41,-0.68 0.08,-0.25 0.12,-0.49 0.12,-0.74 0,-0.36 -0.09,-0.67 -0.26,-0.95 -0.17,-0.28 -0.44,-0.48 -0.81,-0.61 -0.38,-0.13 -0.95,-0.2 -1.71,-0.19l-2.59 0.01 -0.14 3.85zm-0.3 8.03l2.76 -0.01c0.73,-0.01 1.26,-0.06 1.61,-0.14 0.42,-0.11 0.74,-0.25 0.95,-0.43 0.22,-0.17 0.4,-0.41 0.53,-0.71 0.12,-0.29 0.19,-0.63 0.18,-0.99 0,-0.32 -0.06,-0.6 -0.16,-0.84 -0.1,-0.24 -0.26,-0.43 -0.48,-0.6 -0.21,-0.16 -0.47,-0.27 -0.77,-0.34 -0.31,-0.08 -0.79,-0.11 -1.44,-0.1l-3.02 0.02 -0.16 4.14zm15.96 -6.65c0.17,-0.94 0.28,-1.59 0.33,-1.95 0.05,-0.35 0.12,-0.91 0.22,-1.67 2.77,-0.63 5.14,-0.94 7.13,-0.96 1.13,0 2.17,0.12 3.12,0.37 0.94,0.24 1.68,0.65 2.21,1.21 0.53,0.56 0.8,1.37 0.81,2.42 0,0.53 -0.07,1.74 -0.2,3.62 -0.13,1.87 -0.22,4.33 -0.28,7.37 -0.95,-0.01 -1.89,-0.01 -2.82,-0.01 -0.9,0.01 -1.87,0.02 -2.89,0.05 0.13,-1.06 0.26,-3.23 0.4,-6.53 -0.37,0.18 -0.65,0.31 -0.86,0.38 -0.2,0.08 -0.56,0.2 -1.08,0.36 -0.52,0.16 -0.92,0.29 -1.21,0.4 -0.29,0.11 -0.55,0.25 -0.76,0.42 -0.22,0.16 -0.37,0.33 -0.46,0.51 -0.09,0.17 -0.14,0.37 -0.13,0.58 0,0.33 0.13,0.62 0.39,0.85 0.27,0.23 0.68,0.34 1.25,0.34 0.21,0 0.42,-0.02 0.66,-0.05 0.23,-0.04 0.55,-0.12 0.95,-0.25 -0.27,0.72 -0.6,1.78 -0.98,3.18 -0.83,0.14 -1.61,0.21 -2.35,0.22 -1.19,0 -2.19,-0.16 -2.99,-0.48 -0.79,-0.33 -1.41,-0.86 -1.84,-1.59 -0.43,-0.74 -0.65,-1.47 -0.65,-2.21 -0.01,-0.45 0.07,-0.89 0.22,-1.33 0.16,-0.43 0.4,-0.85 0.74,-1.27 0.33,-0.41 0.73,-0.76 1.17,-1.06 0.45,-0.29 1.07,-0.57 1.85,-0.84 0.78,-0.26 1.77,-0.51 2.97,-0.74 0.49,-0.1 0.95,-0.21 1.37,-0.32 0.41,-0.12 0.71,-0.21 0.89,-0.3 0.18,-0.08 0.32,-0.17 0.43,-0.28 0.11,-0.12 0.19,-0.23 0.23,-0.35 0.05,-0.12 0.07,-0.24 0.07,-0.37 0,-0.37 -0.15,-0.66 -0.46,-0.85 -0.31,-0.2 -0.76,-0.29 -1.35,-0.29 -1.65,0.01 -3.69,0.48 -6.1,1.42zm16.57 10.39l0.24 -3.09 0.49 -10.74 0.12 -5.78c1.34,0.01 2.35,0.01 3.02,0.01 0.88,-0.01 1.84,-0.02 2.9,-0.05l-0.3 4.41 -0.46 10.87 -0.08 4.34c-1.04,0 -1.96,0 -2.79,0l-3.14 0.03zm9.16 -0.05l0.23 -3.09 0.49 -10.75 0.13 -5.78c1.33,0.01 2.34,0.02 3.01,0.01 0.88,0 1.84,-0.02 2.9,-0.04l-0.29 4.41 -0.46 10.87 -0.09 4.33c-1.04,0 -1.96,0 -2.79,0.01l-3.13 0.03zm9.9 -16.56c0.05,-1.13 0.08,-2.03 0.07,-2.69 0,-0.19 0,-0.45 -0.01,-0.77 1.16,0.01 2.13,0.01 2.92,0.01 1.08,-0.01 2.03,-0.03 2.85,-0.05 -0.03,0.29 -0.05,0.54 -0.05,0.75l-0.08 1.77c-0.01,0.27 -0.02,0.59 -0.02,0.95 -0.95,-0.01 -1.86,-0.02 -2.74,-0.01 -0.9,0 -1.88,0.02 -2.94,0.04zm-0.81 16.5c0.12,-1.17 0.22,-2.13 0.28,-2.88 0.06,-0.76 0.12,-1.73 0.17,-2.91 0.06,-1.18 0.1,-2.48 0.14,-3.91 0.04,-1.43 0.07,-3.08 0.08,-4.97 1.25,0.01 2.25,0.01 3,0.01 0.69,0 1.67,-0.02 2.95,-0.05 -0.15,1.81 -0.25,3.4 -0.31,4.78 -0.06,1.36 -0.09,2.82 -0.1,4.35 -0.02,2.72 -0.03,4.57 -0.02,5.55 -1.15,-0.02 -2.14,-0.02 -2.97,-0.01 -0.82,0 -1.89,0.02 -3.22,0.04zm9.19 -0.32c-0.04,-0.42 -0.08,-0.86 -0.12,-1.33 -0.04,-0.46 -0.11,-1.11 -0.2,-1.92l-0.12 -1.04c0.93,0.37 1.73,0.64 2.41,0.81 0.67,0.17 1.29,0.26 1.85,0.26 0.47,-0.01 0.85,-0.05 1.14,-0.14 0.3,-0.09 0.51,-0.21 0.64,-0.37 0.13,-0.17 0.2,-0.33 0.2,-0.51 0,-0.15 -0.05,-0.3 -0.16,-0.45 -0.09,-0.15 -0.32,-0.35 -0.68,-0.6 -0.79,-0.57 -1.48,-1.09 -2.08,-1.56 -0.6,-0.46 -1.05,-0.88 -1.35,-1.24 -0.3,-0.36 -0.54,-0.75 -0.7,-1.17 -0.16,-0.42 -0.24,-0.86 -0.24,-1.3 -0.01,-0.8 0.21,-1.54 0.67,-2.24 0.45,-0.69 1.12,-1.19 2,-1.51 0.89,-0.31 1.97,-0.48 3.25,-0.49 1.33,0 3.04,0.16 5.11,0.5l0.26 4c-1.16,-0.44 -2.27,-0.66 -3.35,-0.66 -0.75,0.01 -1.3,0.09 -1.64,0.24 -0.34,0.16 -0.51,0.4 -0.5,0.72 0,0.11 0.02,0.21 0.06,0.3 0.03,0.1 0.11,0.2 0.21,0.3 0.09,0.11 0.22,0.21 0.37,0.33 0.15,0.1 0.51,0.35 1.09,0.75 0.58,0.4 1.03,0.73 1.36,0.99 0.54,0.42 0.95,0.8 1.24,1.16 0.28,0.36 0.5,0.74 0.65,1.15 0.15,0.4 0.23,0.83 0.23,1.28 0,0.68 -0.16,1.3 -0.49,1.87 -0.32,0.58 -0.82,1.06 -1.49,1.44 -0.66,0.39 -1.39,0.66 -2.17,0.81 -0.78,0.16 -1.58,0.24 -2.41,0.24 -0.56,0 -1.26,-0.04 -2.1,-0.13 -0.84,-0.09 -1.82,-0.25 -2.94,-0.49zm25.13 -4.09c-0.16,0.81 -0.31,1.6 -0.43,2.37l-0.31 1.75c-0.95,0.21 -1.7,0.35 -2.23,0.4 -0.54,0.06 -1.05,0.09 -1.56,0.1 -0.81,0 -1.54,-0.06 -2.18,-0.2 -0.64,-0.14 -1.17,-0.39 -1.6,-0.75 -0.42,-0.37 -0.72,-0.79 -0.87,-1.27 -0.16,-0.47 -0.24,-0.98 -0.24,-1.52 0,-0.1 0,-0.26 0.01,-0.51 0.01,-0.24 0.04,-0.79 0.09,-1.63l0.28 -4.98 -2.26 0.02c0.05,-0.66 0.08,-1.53 0.11,-2.61l0.04 -1.33 2.4 -0.02c0.06,-0.44 0.12,-1.4 0.2,-2.88l2.47 -0.52c0.45,-0.1 1.42,-0.32 2.89,-0.69 -0.06,1.26 -0.1,2.61 -0.12,4.06l3.28 -0.02c-0.07,1.98 -0.09,3.3 -0.09,3.94l-3.31 0.02 -0.15 3.6c-0.02,0.53 -0.02,0.88 -0.02,1.03 0,0.46 0.05,0.84 0.16,1.15 0.1,0.31 0.28,0.53 0.54,0.66 0.25,0.13 0.54,0.2 0.85,0.2 0.23,0 0.47,-0.02 0.72,-0.06 0.25,-0.03 0.69,-0.13 1.33,-0.31zm2.59 -12.3c0.05,-1.14 0.07,-2.04 0.07,-2.7 0,-0.19 -0.01,-0.45 -0.02,-0.77 1.16,0.01 2.13,0.01 2.92,0.01 1.08,-0.01 2.04,-0.02 2.85,-0.05 -0.02,0.3 -0.04,0.55 -0.05,0.75l-0.07 1.78c-0.02,0.26 -0.03,0.58 -0.03,0.94 -0.95,-0.01 -1.86,-0.02 -2.74,-0.01 -0.9,0 -1.88,0.02 -2.93,0.05zm-0.82 16.5c0.13,-1.18 0.22,-2.14 0.28,-2.89 0.06,-0.76 0.12,-1.73 0.17,-2.91 0.06,-1.18 0.11,-2.48 0.14,-3.91 0.04,-1.43 0.07,-3.08 0.08,-4.97 1.26,0.01 2.26,0.02 3.01,0.01 0.68,0 1.66,-0.02 2.94,-0.05 -0.14,1.81 -0.25,3.41 -0.3,4.78 -0.06,1.37 -0.1,2.82 -0.11,4.35 -0.02,2.72 -0.03,4.57 -0.02,5.55 -1.15,-0.01 -2.13,-0.02 -2.97,-0.01 -0.82,0 -1.89,0.02 -3.22,0.05zm7.75 -0.05l3.26 -4.37 2.43 -3.35 -4.57 -6.96c1.4,0.01 2.61,0.01 3.62,0.01 1.27,-0.01 2.32,-0.03 3.14,-0.05l1.54 3.28c0.09,0.2 0.24,0.51 0.42,0.93 0.73,-1.27 1.6,-2.68 2.6,-4.24 0.86,0.02 1.89,0.02 3.08,0.01 1.11,0 2.16,-0.02 3.16,-0.05l-2.29 3.04c-0.45,0.59 -1.41,1.9 -2.88,3.92 0.9,1.52 2.53,4.09 4.91,7.72 -1.09,-0.02 -2.16,-0.02 -3.22,-0.01 -1.29,0 -2.44,0.02 -3.46,0.05 -0.64,-1.34 -1.13,-2.33 -1.47,-2.97 -0.34,-0.64 -0.62,-1.22 -0.86,-1.76l-0.45 0.79c-0.15,0.24 -0.36,0.6 -0.66,1.07l-1.82 2.9c-1.04,-0.01 -2.05,-0.02 -3.03,-0.01 -1.14,0 -2.29,0.02 -3.45,0.05z"/>
   </g>
   <g id="flare">
    <path class="fil2" d="M204.53 90.57c-2.65,2.6 -5.88,3.67 -9.44,3.82 -7.3,0.29 -14.85,-0.27 -21.33,0.08 -0.06,0 -0.15,0.01 -0.21,0.01 -0.25,0.01 -0.57,0.01 -0.83,0.01 -0.09,0 -0.33,-0.02 -0.42,-0.02l-5.64 -0.15c-0.64,0 -1.06,-0.03 -1.68,-0.01 -0.87,0.02 -1.04,0.14 -1.88,0.19 -4.52,0.25 -14.96,-0.19 -20.91,-0.17l-8.57 0.11c-7.3,0.29 -21.7,-0.14 -29.49,-0.2l-2.51 -0.04c-0.06,0 -0.14,-0.01 -0.21,-0.01l-0.41 -0.04c-0.06,0 -0.15,0 -0.21,0l-2.51 -0.08c-0.06,-0.01 -0.15,-0.01 -0.21,-0.02 -8.56,-0.86 -5.61,6.99 -1.51,5.53 1.42,-0.5 2.2,-1.72 3.57,-1.86 1.14,-0.11 2.38,0.04 3.76,-0.06 4.2,-0.29 17.52,0.05 22.17,0.08 2.58,0.03 5.03,0.22 7.52,-0.05l25.73 -0.05c3.43,-0.28 13.67,0.32 16.73,0.07 0.94,-0.08 0.87,-0.18 1.88,-0.15l14.84 0.1c0.78,0.01 0.97,-0.02 1.68,-0.1 6.72,-0.81 7.51,-0.34 13.22,-5.92 -0.88,-0.75 -2.09,-0.74 -3.13,-1.07l0 0 0 0z"/>
    <path class="fil3" d="M99.16 36.92c-1.42,1.39 0.11,2.59 1.65,2.78 0.7,0.08 0.99,-0.07 1.67,-0.13l31.15 0.29c0.07,0 0.15,0 0.21,0l29.28 0.25c6.42,0.36 11.31,0.42 17.77,0.06 2.9,-0.15 17.09,-0.03 18.4,0.38 2.7,0.83 4.21,1.5 6.25,3.25l1.89 -1.86c-2.47,-2.5 -4.35,-3.86 -7.49,-4.34 -2.51,-0.39 -4.21,-0.43 -6.69,-0.45l-40.35 -0.32c-2.33,-0.02 -4.4,-0.29 -6.69,-0.2l-11.71 0.05c-2.29,0.13 -7.14,-0.55 -10.04,-0.24 -0.74,0.07 -0.82,0.17 -1.67,0.16l-1.46 -0.09c-0.06,0 -0.15,0 -0.21,0l-5.85 -0.16c-0.09,0.01 -0.34,0.03 -0.43,0.03l-2.09 -0.01c-3.9,-0.3 -6.14,0.27 -10.87,-0.05l-1.67 0.02c-0.64,0.17 -0.37,-0.08 -1.05,0.58l0 0z"/>
    <path class="fil4" d="M166.64 17.49c-0.83,0.83 -0.24,1.85 0.4,2.5 0.83,0.84 7.02,0.14 9.41,0.46 6.2,0.85 8.51,0.47 15.65,3.6l6.25 3c5.53,2.85 15.21,10.91 16.81,15.57 1.04,-0.62 1.98,-0.83 2.95,-1.63 -5.21,-8.47 -9.38,-11.79 -17.44,-16.78 -3.34,-2.08 -7.76,-3.87 -11.25,-4.94 -5.74,-1.76 -8.41,-1.96 -13.99,-2.22 -0.66,-0.03 -0.9,-0.1 -1.46,-0.14 -1.97,-0.14 -6.13,-0.58 -7.33,0.59l0 -0.01 0 0z"/>
    <path class="fil5" d="M112.39 28.91c-0.98,0.97 -0.77,3.33 2.07,3.22l5.23 -0.14c5.72,0.05 11.44,0.24 17.15,0l26.97 -0.22c0.07,0.01 0.15,0.01 0.21,0.01l1.67 -0.05c3.43,-0.01 3.12,0.63 4.62,-1.73 -1.66,-2.69 -1.13,-1.63 -8.14,-1.69l-18.41 0.19c-0.05,0 -0.14,0 -0.21,0l-7.1 0.05c-0.09,0 -0.34,-0.02 -0.42,-0.03l-11.92 0.01c-0.43,-0.03 -0.59,-0.04 -1.04,-0.05 -2.13,-0.04 -9.81,-0.41 -10.68,0.43l0 0 0 0z"/>
    <path class="fil6" d="M77.49 52.76c-1.28,1.25 -0.93,1.57 0.19,2.7 0.67,0.68 17.57,0.4 20.07,0.47l1.25 0.08c0.06,0 0.15,0 0.21,0l15.68 0.26c1.31,0.09 1.85,0.24 3.14,0.44 1.14,0.17 1.98,0.29 3.13,0.47 4.96,0.77 5.92,0.4 7.55,-2.14 -0.19,-0.54 -0.51,-1.35 -1.03,-1.89 -1.4,-1.4 -18.03,-0.46 -21.96,-0.47l-15.68 -0.13c-3.55,-0.03 -6.01,0.07 -9.41,-0.24 -0.74,-0.07 -2.57,-0.11 -3.14,0.45l0 0 0 0z"/>
    <path class="fil7" d="M72.6 63.33c-1.59,1.54 -0.07,3 1.43,3.12l12.56 -0.12c0.51,-0.02 0.35,-0.01 0.83,-0.01l5.02 -0.03c2.33,0.02 4.36,0.03 6.69,0.05 1.58,0.02 25.78,0.66 26.56,-0.1 1,-0.98 1.34,-1.58 0.44,-2.49 -1.08,-1.09 -4.23,-0.63 -6.69,-0.63l-33.46 0c-2.33,-0.02 -4.35,-0.04 -6.69,-0.06 -1.18,0 -5.97,-0.44 -6.69,0.27l0 0 0 0z"/>
    <path class="fil8" d="M64.15 74.48c-0.49,0.49 -0.51,1.59 -0.02,2.08 1.7,1.72 5.39,-0.09 9.61,0.43 4.11,0.5 7.16,2.96 10.46,-0.27 3.67,-3.58 -0.96,-8.76 -5.19,-6.57 -1.52,0.79 -1.69,2.7 -3.55,3.45l-0.86 0.21c-1.07,0.13 -1.46,-0.12 -2.5,-0.19 -1.93,-0.15 -6.65,-0.42 -7.95,0.86l0 0 0 0z"/>
    <path class="fil9" d="M119.66 88.23c-0.42,0.41 -1.34,3.04 2.9,2.81l18.4 0.03c5.2,0.76 5.27,-4.15 0.66,-3.53l-18.82 -0.02c-1.08,-0.03 -2.18,-0.24 -3.14,0.71l0 0 0 0z"/>
    <path class="fil10" d="M93.86 45.82c-0.84,0.82 -0.25,1.84 0.4,2.5 0.67,0.68 12.04,0.4 13.17,0.41l6.69 -0.15c1.27,0.01 2.21,0.37 3.18,-0.31 0.67,-0.47 1.65,-1.83 0.19,-3.3 -1.95,-1.98 -2.1,0.41 -4.39,0.51l-4.39 -0.27c-2.69,-0.07 -13.53,-0.69 -14.85,0.61l0 0z"/>
    <path class="fil11" d="M125.23 44.82c1.35,2.19 0.95,1.57 5.85,1.61 1.84,0.01 3.38,0.02 5.22,0.04l5.23 -0.17c3.3,0 4.21,0.73 5.86,-0.89 0.88,-0.85 0.08,-1.6 -0.4,-2.08 -0.56,-0.57 -3.77,-0.35 -4.81,-0.31 -0.08,0 -0.33,0.02 -0.41,0.02l-3.14 -0.07c-0.21,0.01 -0.49,0.03 -0.63,0.04 -0.06,0 -0.15,0.01 -0.21,0.01l-0.62 0c-0.03,0 -0.52,-0.02 -0.63,-0.02 -0.41,-0.02 -0.36,-0.05 -0.84,-0.05 -1.44,-0.03 -1.21,0.29 -3.34,0.08l-0.84 -0.09c-0.63,-0.05 -0.84,-0.05 -1.46,-0.06 -2.24,-0.02 -3.93,-0.54 -4.83,1.94l0 0z"/>
    <path class="fil12" d="M112.68 71.96c-1.07,1.05 -0.71,4.83 -0.72,6.23l-0.09 2.91c-0.01,2.35 -0.08,4.57 -0.55,6.86 -0.63,3.02 2,3.48 3.27,2.56 1.07,-0.78 0.84,-5.43 0.98,-8.14 0.13,-2.49 -0.26,-3.79 0.19,-7.07 0.79,-5.82 -2.95,-3.49 -3.08,-3.35l0 0z"/>
    <path class="fil13" d="M121.03 73.27c-5.32,5.22 5.45,10.87 6.72,3.18 0.42,-2.54 -3.43,-6.39 -6.72,-3.18z"/>
    <path class="fil14" d="M137.96 22.88c-1.06,1.03 -0.72,2.95 2.9,2.66 4.24,-0.35 8.79,0.34 10.26,-1.1 1.03,-1.01 0.05,-2.77 -3.54,-2.63 -2.54,0.1 -8.4,-0.12 -9.62,1.07l0 0z"/>
    <path class="fil15" d="M188.72 29.32c-1.73,1.69 0.46,6.15 3.95,2.73 1.66,-1.63 -1.7,-4.94 -3.95,-2.73z"/>
    <path class="fil16" d="M196.25 131.89c-0.01,0.16 -0.02,0.34 -0.02,0.5 11.26,-6.68 21.14,-14.53 29.26,-25.62 3.07,-4.22 7.18,-11.87 7.88,-12.73 -0.01,-0.88 0.39,-1.44 0.98,-2.38l0.81 -2.51c-1.4,-0.43 -3.2,0 -4.48,0.17 -6.38,0.82 -3.28,-1.82 -7.74,6.14 -3.78,5.85 -6.46,9.37 -12.89,16.49 -4.73,9.4 -6.82,14.85 -13.8,19.94l0 0 0 0z"/>
    <path class="fil17" d="M172.77 2.66c2.09,1.4 0.97,3.93 -0.06,5.64 1.15,0.32 2.38,0.26 3.68,0.2 1.14,-0.05 2.39,0.17 3.75,0.33 7.22,0.88 16.28,3.29 22.95,6.83 9.11,4.85 16.02,10.02 22.73,17.81 1.99,2.32 3.33,4.94 4.94,6.85 1.12,0.15 1.14,-0.23 3.51,0.36 1.27,0.31 2.69,0.68 3.77,0.98 0.36,-2.59 -8.49,-13.2 -11.56,-16.24 -12.41,-12.26 -28.26,-19.84 -45.03,-22.2 -2.11,-0.29 -7.05,-0.75 -8.68,-0.56l0 0z"/>
   </g>
  </g>
 </g>
</svg>
